HIERARCHY
ROOT reference
{
  OFFSET 0 0 0
  CHANNELS 6 Xposition Yposition Zposition Zrotation Xrotation Yrotation
  JOINT Hips
  {
    OFFSET -0.640737 85.2663 92.3231
    CHANNELS 6 Xposition Yposition Zposition Zrotation Xrotation Yrotation
    JOINT Spine
    {
      OFFSET 0 8.12958 0
      CHANNELS 6 Xposition Yposition Zposition Zrotation Xrotation Yrotation
      JOINT Spine1
      {
        OFFSET 0 26.3907 0
        CHANNELS 6 Xposition Yposition Zposition Zrotation Xrotation Yrotation
        JOINT Neck
        {
          OFFSET 0 26.2823 2.3893
          CHANNELS 6 Xposition Yposition Zposition Zrotation Xrotation Yrotation
          JOINT Head
          {
            OFFSET 0 13.8798 -1.98282
            CHANNELS 6 Xposition Yposition Zposition Zrotation Xrotation Yrotation
            End Site
            {
              OFFSET 0 24.7853 0
            }
          }
        }
        JOINT LeftShoulder
        {
          OFFSET 3.97789 23.5745 -0.27352
          CHANNELS 6 Xposition Yposition Zposition Zrotation Xrotation Yrotation
          JOINT LeftArm
          {
            OFFSET 13.7626 0 0
            CHANNELS 6 Xposition Yposition Zposition Zrotation Xrotation Yrotation
            JOINT LeftForeArm
            {
              OFFSET 26.1014 0 0
              CHANNELS 6 Xposition Yposition Zposition Zrotation Xrotation Yrotation
              JOINT LeftHand
              {
                OFFSET 29.9599 0 0
                CHANNELS 6 Xposition Yposition Zposition Zrotation Xrotation Yrotation
                End Site
                {
                  OFFSET 14.8712 0 0
                }
              }
            }
          }
        }
        JOINT RightShoulder
        {
          OFFSET -3.9517 23.5745 -0.27352
          CHANNELS 6 Xposition Yposition Zposition Zrotation Xrotation Yrotation
          JOINT RightArm
          {
            OFFSET -13.7626 0 0
            CHANNELS 6 Xposition Yposition Zposition Zrotation Xrotation Yrotation
            JOINT RightForeArm
            {
              OFFSET -26.1014 0 0
              CHANNELS 6 Xposition Yposition Zposition Zrotation Xrotation Yrotation
              JOINT RightHand
              {
                OFFSET -29.9599 0 0
                CHANNELS 6 Xposition Yposition Zposition Zrotation Xrotation Yrotation
                End Site
                {
                  OFFSET -14.8712 0 0
                }
              }
            }
          }
        }
      }
    }
    JOINT LeftUpLeg
    {
      OFFSET 9.91412 0 0
      CHANNELS 6 Xposition Yposition Zposition Zrotation Xrotation Yrotation
      JOINT LeftLeg
      {
        OFFSET 0 -41.4279 0
        CHANNELS 6 Xposition Yposition Zposition Zrotation Xrotation Yrotation
        JOINT LeftFoot
        {
          OFFSET 0 -41.0254 0
          CHANNELS 6 Xposition Yposition Zposition Zrotation Xrotation Yrotation
          JOINT LeftToeBase
          {
            OFFSET 0 -6.44418 14.8712
            CHANNELS 6 Xposition Yposition Zposition Zrotation Xrotation Yrotation
            End Site
            {
              OFFSET 0 0 3.96565
            }
          }
        }
      }
    }
    JOINT RightUpLeg
    {
      OFFSET -9.91412 0 0
      CHANNELS 6 Xposition Yposition Zposition Zrotation Xrotation Yrotation
      JOINT RightLeg
      {
        OFFSET 0 -41.4279 0
        CHANNELS 6 Xposition Yposition Zposition Zrotation Xrotation Yrotation
        JOINT RightFoot
        {
          OFFSET 0 -41.0254 0
          CHANNELS 6 Xposition Yposition Zposition Zrotation Xrotation Yrotation
          JOINT RightToeBase
          {
            OFFSET 0 -6.44418 14.8712
            CHANNELS 6 Xposition Yposition Zposition Zrotation Xrotation Yrotation
            End Site
            {
              OFFSET 0 0 3.96565
            }
          }
        }
      }
    }
  }
}
MOTION
Frames:	8
Frame Time:	0.004
0 0 0 0 0 -0 -10.0244 84.5038 -119.99 2.7656 -0.12323 4.85684 8.88178e-016 8.12958 0 -3.19918 19.5656 -6.74805 0 26.3907 0 -4.33231 8.72903 -6.96893 0 26.2823 2.3893 -0.966351 5.44667 -2.37023 0 13.8798 -1.98282 7.53795 -3.3371 -1.07817 3.97789 23.5745 -0.27352 -0.582711 16.3063 -8.15972 13.7626 0 0 -21.425 38.4217 -27.9355 26.1014 0 0 14.4468 -37.632 -78.8403 29.9599 7.10543e-015 -1.42109e-014 -5.89067 -26.6442 -19.8732 -3.9517 23.5745 -0.27352 15.9307 26.1883 -1.27104 -13.7626 0 0 25.3683 32.1225 25.6957 -26.1014 1.42109e-014 0 0.899104 -19.3719 90.8299 -29.9599 0 0 16.7289 -17.0494 22.5395 9.91412 1.42109e-014 0 5.63146 -1.09053 4.05382 3.55271e-015 -41.4279 0 -3.04189 14.5635 -1.91227 0 -41.0254 -1.42109e-014 -11.4331 -12.3118 2.54616 0 -6.44418 14.8712 1.01877e-015 1.98785e-016 -4.77083e-015 -9.91412 1.42109e-014 0 -18.7343 -36.5976 -21.3605 0 -41.4279 0 119.384 82.0239 -88.2441 -8.88178e-016 -41.0254 0 12.5499 -22.1057 -11.0177 0 -6.44418 14.8712 6.36111e-015 -1.27222e-014 6.36111e-015 
0 0 0 0 0 -0 -10.028 84.5198 -119.623 2.65625 -0.219447 4.90728 -1.77636e-015 8.12958 0 -3.02599 19.5047 -6.88127 0 26.3907 0 -4.24294 8.72744 -7.07752 0 26.2823 2.3893 -0.96758 5.51577 -2.31478 0 13.8798 -1.98282 7.407 -3.36019 -1.04193 3.97789 23.5745 -0.27352 -0.648743 16.3934 -8.0314 13.7626 -1.42109e-014 0 -21.4178 38.3018 -28.006 26.1014 -1.42109e-014 1.42109e-014 14.4574 -37.6694 -78.8904 29.9599 0 1.42109e-014 -5.8903 -26.676 -19.7228 -3.9517 23.5745 -0.27352 15.9227 26.181 -1.29528 -13.7626 0 2.84217e-014 25.322 32.0298 25.5711 -26.1014 1.42109e-014 -2.84217e-014 0.560323 -19.4858 90.7282 -29.9599 0 1.42109e-014 17.2778 -16.6197 23.2533 9.91412 0 -1.42109e-014 5.76271 -0.628082 3.98916 0 -41.4279 0 -3.04165 14.2793 -1.8199 0 -41.0254 -1.42109e-014 -11.473 -12.3388 2.43988 0 -6.44418 14.8712 -5.46658e-016 2.98177e-016 -4.77083e-015 -9.91412 0 0 -18.9012 -36.8866 -21.5336 -7.10543e-015 -41.4279 0 118.017 82.1575 -87.2264 4.44089e-016 -41.0254 0 12.7198 -21.9902 -10.7874 -7.10543e-015 -6.44418 14.8712 1.59028e-015 -3.18055e-015 -3.18055e-015 
0 0 0 0 0 -0 -10.0365 84.53 -119.278 2.56608 -0.287911 4.93797 1.77636e-015 8.12958 0 -2.95039 19.5273 -6.95652 0 26.3907 0 -4.0249 8.57336 -7.16246 0 26.2823 2.3893 -0.988026 5.62912 -2.25853 7.10543e-015 13.8798 -1.98282 7.23098 -3.38087 -1.01133 3.97789 23.5745 -0.27352 -0.765958 16.466 -7.96394 13.7626 -1.42109e-014 2.84217e-014 -21.5393 38.1729 -27.9733 26.1014 0 0 14.3757 -37.6167 -79.0317 29.9599 0 0 -5.92727 -26.6437 -19.7602 -3.9517 23.5745 -0.27352 15.9236 26.2161 -1.44899 -13.7626 1.42109e-014 -2.84217e-014 25.1991 31.9784 25.5036 -26.1014 0 0 0.520953 -19.5273 90.7792 -29.9599 1.42109e-014 0 17.4096 -16.5763 23.3913 9.91412 -1.42109e-014 0 5.87692 -0.23123 3.98988 0 -41.4279 -1.42109e-014 -3.03754 14.0501 -1.72819 0 -41.0254 1.42109e-014 -11.5105 -12.3567 2.27725 0 -6.44418 14.8712 1.6027e-015 -2.98177e-016 -0 -9.91412 -1.42109e-014 0 -19.1966 -37.1967 -21.54 0 -41.4279 7.10543e-015 116.362 81.9991 -85.3401 4.44089e-016 -41.0254 0 12.4196 -21.6719 -11.0159 -7.10543e-015 -6.44418 14.8712 1.59028e-015 -9.54166e-015 4.77083e-015 
0 0 0 0 0 -0 -10.0421 84.5343 -118.909 2.48744 -0.354219 4.98777 8.88178e-016 8.12958 -1.42109e-014 -2.81051 19.4451 -7.06991 0 26.3907 0 -3.93854 8.57119 -7.25624 7.10543e-015 26.2823 2.3893 -0.950741 5.66209 -2.21113 0 13.8798 -1.98282 7.0786 -3.35927 -0.993483 3.97789 23.5745 -0.27352 -0.790189 16.5514 -7.86085 13.7626 1.42109e-014 0 -21.5809 38.1022 -28.0839 26.1014 0 1.42109e-014 14.4106 -37.6842 -79.0455 29.9599 -7.10543e-015 0 -5.97833 -26.6871 -19.6727 -3.9517 23.5745 -0.27352 15.9283 26.1986 -1.46242 -13.7626 -1.42109e-014 0 25.2349 31.8185 25.3188 -26.1014 0 0 0.529627 -19.4996 90.8384 -29.9599 0 2.13163e-014 17.5515 -16.5244 23.4155 9.91412 1.42109e-014 -1.42109e-014 5.96934 0.20081 3.72922 0 -41.4279 0 -3.08102 13.7551 -1.4232 0 -41.0254 -1.42109e-014 -11.5187 -12.3797 2.16599 0 -6.44418 14.8712 6.95746e-016 -9.93923e-017 -0 -9.91412 0 0 -19.3929 -37.4573 -21.5697 1.42109e-014 -41.4279 -7.10543e-015 113.994 82.0537 -83.2077 -1.33227e-015 -41.0254 0 12.5809 -21.7107 -10.8134 7.10543e-015 -6.44418 14.8712 1.11319e-014 9.54166e-015 -0 
0 0 0 0 0 -0 -10.0325 84.5399 -118.52 2.36547 -0.463956 5.13578 8.88178e-016 8.12958 0 -2.46648 19.2792 -7.28092 0 26.3907 0 -4.05766 8.75676 -7.38905 0 26.2823 2.3893 -0.873296 5.70408 -2.15221 -7.10543e-015 13.8798 -1.98282 6.98381 -3.41893 -0.952844 3.97789 23.5745 -0.27352 -0.742718 16.5594 -7.76564 13.7626 0 0 -21.6322 38.0994 -28.1523 26.1014 0 0 14.5027 -37.8246 -78.9999 29.9599 -7.10543e-015 1.42109e-014 -6.23369 -26.7366 -19.8434 -3.9517 23.5745 -0.27352 16.0426 26.1831 -1.42953 -13.7626 -1.42109e-014 0 25.268 31.5886 25.1316 -26.1014 0 0 0.885605 -19.3602 91.1311 -29.9599 0 7.10543e-015 16.9315 -16.9906 22.5313 9.91412 0 0 6.09207 0.631349 3.54383 -3.55271e-015 -41.4279 0 -3.05979 13.5412 -1.35483 0 -41.0254 0 -11.5051 -12.4532 2.11309 -7.10543e-015 -6.44418 14.8712 -1.2921e-015 1.98785e-016 -0 -9.91412 1.42109e-014 0 -19.637 -37.5914 -21.8621 0 -41.4279 7.10543e-015 111.818 82.2481 -81.224 0 -41.0254 -1.42109e-014 12.5747 -21.5374 -10.6185 0 -6.44418 14.8712 -6.36111e-015 0 3.18055e-015 
0 0 0 0 0 -0 -10.047 84.5408 -118.164 2.26726 -0.528169 5.17408 0 8.12958 0 -2.46856 19.34 -7.35001 0 26.3907 0 -3.66596 8.55057 -7.49651 -7.10543e-015 26.2823 2.3893 -0.984465 5.77051 -2.09661 1.42109e-014 13.8798 -1.98282 6.81958 -3.37317 -0.915657 3.97789 23.5745 -0.27352 -0.995414 16.7064 -7.62985 13.7626 0 0 -21.7719 37.8726 -28.151 26.1014 0 -1.42109e-014 14.3307 -37.6999 -79.2393 29.9599 -7.10543e-015 0 -6.07207 -26.7151 -19.6455 -3.9517 23.5745 -0.27352 15.9431 26.234 -1.5514 -13.7626 0 -2.84217e-014 25.1863 31.5291 25.0471 -26.1014 0 -2.84217e-014 0.992782 -19.4397 91.2322 -29.9599 7.10543e-015 0 16.9606 -17.1872 22.4267 9.91412 0 0 6.2093 0.99834 3.55375 0 -41.4279 -1.42109e-014 -3.03624 13.3861 -1.39766 3.55271e-015 -41.0254 -1.42109e-014 -11.5228 -12.5396 2.11076 0 -6.44418 14.8712 -2.23633e-016 -1.98785e-016 1.59028e-015 -9.91412 1.42109e-014 0 -19.9013 -37.7887 -21.8435 0 -41.4279 7.10543e-015 108.889 82.1372 -78.0358 8.88178e-016 -41.0254 -1.42109e-014 12.1944 -21.4425 -10.9231 7.10543e-015 -6.44418 14.8712 3.18055e-015 -3.18055e-015 3.18055e-015 
0 0 0 0 0 -0 -10.0603 84.5412 -117.797 2.17388 -0.606996 5.24489 1.77636e-015 8.12958 -1.42109e-014 -2.3194 19.31 -7.4681 0 26.3907 0 -3.54821 8.49347 -7.59914 7.10543e-015 26.2823 2.3893 -0.820958 5.8286 -2.04868 0 13.8798 -1.98282 6.38386 -3.40133 -0.955455 3.97789 23.5745 -0.27352 -1.07683 16.8348 -7.50426 13.7626 2.84217e-014 0 -21.8129 37.865 -28.2267 26.1014 -1.42109e-014 -1.42109e-014 14.3734 -37.829 -79.2959 29.9599 -1.42109e-014 0 -6.13834 -26.8082 -19.6284 -3.9517 23.5745 -0.27352 15.9572 26.2369 -1.59687 -13.7626 0 0 25.2205 31.3892 24.8765 -26.1014 7.10543e-015 0 0.917589 -19.4456 91.221 -29.9599 1.42109e-014 -7.10543e-015 17.2488 -17.0309 22.6441 9.91412 -1.42109e-014 -1.42109e-014 6.32086 1.37444 3.51553 0 -41.4279 0 -3.01455 13.2335 -1.43571 0 -41.0254 -1.42109e-014 -11.4247 -12.6219 2.12888 0 -6.44418 14.8712 1.36664e-015 -3.97569e-016 1.59028e-015 -9.91412 0 -1.42109e-014 -20.1193 -38.024 -22.1378 0 -41.4279 0 106.808 82.4035 -76.154 2.66454e-015 -41.0254 0 12.1816 -21.1808 -10.8145 0 -6.44418 14.8712 -7.95139e-016 -6.36111e-015 -1.59028e-015 
0 0 0 0 0 -0 -10.0834 84.5318 -117.433 2.09142 -0.660915 5.29184 1.77636e-015 8.12958 -1.42109e-014 -2.18375 19.2026 -7.55745 3.55271e-015 26.3907 0 -3.48764 8.55778 -7.66585 0 26.2823 2.3893 -0.763838 5.77868 -1.99378 0 13.8798 -1.98282 6.29839 -3.34757 -0.921089 3.97789 23.5745 -0.27352 -1.07292 16.9097 -7.36489 13.7626 -1.42109e-014 0 -21.8847 37.7306 -28.3513 26.1014 -1.42109e-014 0 14.2548 -37.8008 -79.4733 29.9599 0 1.42109e-014 -6.2376 -26.8227 -19.5187 -3.9517 23.5745 -0.27352 16.0471 26.17 -1.72323 -13.7626 1.42109e-014 -2.84217e-014 25.2098 31.247 24.7696 -26.1014 -7.10543e-015 0 0.924657 -19.4212 91.2505 -29.9599 0 0 17.3272 -16.9932 22.6763 9.91412 0 0 6.43129 1.7286 3.4985 -3.55271e-015 -41.4279 1.42109e-014 -3.00306 13.0918 -1.51148 0 -41.0254 1.42109e-014 -11.2565 -12.7476 2.17236 0 -6.44418 14.8712 -1.58407e-015 -2.23633e-016 -1.59028e-015 -9.91412 0 0 -20.2919 -38.2512 -22.2023 0 -41.4279 0 103.738 82.5067 -73.3451 1.77636e-015 -41.0254 0 12.2754 -21.0184 -10.6591 0 -6.44418 14.8712 -3.18055e-015 -6.36111e-015 4.77083e-015 
